{
	"asset":{
		"generator":"Khronos glTF Blender I/O v3.6.28",
		"version":"2.0"
	},
	"scene":0,
	"scenes":[
		{
			"name":"Scene",
			"nodes":[
				0,
				1,
				2,
				3,
				4,
				5,
				6,
				7,
				8
			]
		}
	],
	"nodes":[
		{
			"mesh":0,
			"name":"Sphere",
			"scale":[
				1,
				0.20000000298023224,
				1
			],
			"translation":[
				-1.75,
				0,
				0
			]
		},
		{
			"mesh":1,
			"name":"Sphere.001",
			"scale":[
				1,
				0.20000000298023224,
				1
			],
			"translation":[
				1.75,
				0,
				0
			]
		},
		{
			"mesh":2,
			"name":"Sphere.003",
			"scale":[
				2.75,
				1.5,
				1.5
			],
			"translation":[
				0,
				3,
				0
			]
		},
		{
			"mesh":3,
			"name":"Sphere.004",
			"scale":[
				2.125,
				1,
				1.5
			],
			"translation":[
				0,
				6.25,
				-1
			]
		},
		{
			"mesh":4,
			"name":"Sphere.005",
			"scale":[
				2.75,
				1.5,
				1.5
			],
			"translation":[
				0,
				7,
				0
			]
		},
		{
			"mesh":5,
			"name":"Sphere.006",
			"scale":[
				2.75,
				0.30000001192092896,
				1.5
			],
			"translation":[
				0,
				1,
				0
			]
		},
		{
			"mesh":6,
			"name":"Cylinder",
			"scale":[
				1.5,
				1.5,
				1
			],
			"translation":[
				0,
				5,
				1.25
			]
		},
		{
			"mesh":7,
			"name":"Sphere.002",
			"scale":[
				1.5,
				0.5,
				1
			],
			"translation":[
				0,
				3.5,
				1.25
			]
		},
		{
			"mesh":8,
			"name":"Sphere.007",
			"scale":[
				1.5,
				0.5,
				1
			],
			"translation":[
				0,
				6.5,
				1.25
			]
		}
	],
	"materials":[
		{
			"doubleSided":true,
			"name":"Material.002",
			"pbrMetallicRoughness":{
				"baseColorFactor":[
					0.8000000715255737,
					0,
					0.0040496159344911575,
					1
				],
				"metallicFactor":0,
				"roughnessFactor":0.5
			}
		},
		{
			"doubleSided":true,
			"name":"Material.001",
			"pbrMetallicRoughness":{
				"baseColorFactor":[
					0.18720176815986633,
					0.5819231271743774,
					1,
					1
				],
				"metallicFactor":0,
				"roughnessFactor":0.5
			}
		}
	],
	"meshes":[
		{
			"name":"Sphere.001",
			"primitives":[
				{
					"attributes":{
						"POSITION":0,
						"NORMAL":1,
						"TEXCOORD_0":2
					},
					"indices":3,
					"material":0
				}
			]
		},
		{
			"name":"Sphere.005",
			"primitives":[
				{
					"attributes":{
						"POSITION":4,
						"NORMAL":5,
						"TEXCOORD_0":6
					},
					"indices":3,
					"material":0
				}
			]
		},
		{
			"name":"Sphere.007",
			"primitives":[
				{
					"attributes":{
						"POSITION":7,
						"NORMAL":8,
						"TEXCOORD_0":9
					},
					"indices":10,
					"material":0
				}
			]
		},
		{
			"name":"Sphere.008",
			"primitives":[
				{
					"attributes":{
						"POSITION":11,
						"NORMAL":12,
						"TEXCOORD_0":13
					},
					"indices":10,
					"material":1
				}
			]
		},
		{
			"name":"Sphere.009",
			"primitives":[
				{
					"attributes":{
						"POSITION":14,
						"NORMAL":15,
						"TEXCOORD_0":16
					},
					"indices":10,
					"material":0
				}
			]
		},
		{
			"name":"Sphere.010",
			"primitives":[
				{
					"attributes":{
						"POSITION":17,
						"NORMAL":18,
						"TEXCOORD_0":19
					},
					"indices":20,
					"material":0
				}
			]
		},
		{
			"name":"Cylinder.001",
			"primitives":[
				{
					"attributes":{
						"POSITION":21,
						"NORMAL":22,
						"TEXCOORD_0":23
					},
					"indices":24,
					"material":0
				}
			]
		},
		{
			"name":"Sphere.011",
			"primitives":[
				{
					"attributes":{
						"POSITION":25,
						"NORMAL":26,
						"TEXCOORD_0":27
					},
					"indices":28,
					"material":0
				}
			]
		},
		{
			"name":"Sphere.012",
			"primitives":[
				{
					"attributes":{
						"POSITION":29,
						"NORMAL":30,
						"TEXCOORD_0":31
					},
					"indices":28,
					"material":0
				}
			]
		}
	],
	"accessors":[
		{
			"bufferView":0,
			"componentType":5126,
			"count":1219,
			"max":[
				0.9999997019767761,
				19.181806564331055,
				0.9999993443489075
			],
			"min":[
				-0.9999990463256836,
				-1,
				-1
			],
			"type":"VEC3"
		},
		{
			"bufferView":1,
			"componentType":5126,
			"count":1219,
			"type":"VEC3"
		},
		{
			"bufferView":2,
			"componentType":5126,
			"count":1219,
			"type":"VEC2"
		},
		{
			"bufferView":3,
			"componentType":5123,
			"count":2016,
			"type":"SCALAR"
		},
		{
			"bufferView":4,
			"componentType":5126,
			"count":1219,
			"max":[
				0.9999997019767761,
				19.181806564331055,
				0.9999993443489075
			],
			"min":[
				-0.9999990463256836,
				-1,
				-1
			],
			"type":"VEC3"
		},
		{
			"bufferView":5,
			"componentType":5126,
			"count":1219,
			"type":"VEC3"
		},
		{
			"bufferView":6,
			"componentType":5126,
			"count":1219,
			"type":"VEC2"
		},
		{
			"bufferView":7,
			"componentType":5126,
			"count":1984,
			"max":[
				0.9999997019767761,
				1,
				0.9999993443489075
			],
			"min":[
				-0.9999990463256836,
				-1,
				-1
			],
			"type":"VEC3"
		},
		{
			"bufferView":8,
			"componentType":5126,
			"count":1984,
			"type":"VEC3"
		},
		{
			"bufferView":9,
			"componentType":5126,
			"count":1984,
			"type":"VEC2"
		},
		{
			"bufferView":10,
			"componentType":5123,
			"count":2880,
			"type":"SCALAR"
		},
		{
			"bufferView":11,
			"componentType":5126,
			"count":1984,
			"max":[
				0.9999997019767761,
				1,
				0.9999993443489075
			],
			"min":[
				-0.9999990463256836,
				-1,
				-1
			],
			"type":"VEC3"
		},
		{
			"bufferView":12,
			"componentType":5126,
			"count":1984,
			"type":"VEC3"
		},
		{
			"bufferView":13,
			"componentType":5126,
			"count":1984,
			"type":"VEC2"
		},
		{
			"bufferView":14,
			"componentType":5126,
			"count":1984,
			"max":[
				0.9999997019767761,
				1,
				0.9999993443489075
			],
			"min":[
				-0.9999990463256836,
				-1,
				-1
			],
			"type":"VEC3"
		},
		{
			"bufferView":15,
			"componentType":5126,
			"count":1984,
			"type":"VEC3"
		},
		{
			"bufferView":16,
			"componentType":5126,
			"count":1984,
			"type":"VEC2"
		},
		{
			"bufferView":17,
			"componentType":5126,
			"count":152,
			"max":[
				0.9999997019767761,
				20.45456886291504,
				0.9999993443489075
			],
			"min":[
				-0.9999990463256836,
				0,
				-1
			],
			"type":"VEC3"
		},
		{
			"bufferView":18,
			"componentType":5126,
			"count":152,
			"type":"VEC3"
		},
		{
			"bufferView":19,
			"componentType":5126,
			"count":152,
			"type":"VEC2"
		},
		{
			"bufferView":20,
			"componentType":5123,
			"count":228,
			"type":"SCALAR"
		},
		{
			"bufferView":21,
			"componentType":5126,
			"count":192,
			"max":[
				1,
				1,
				1
			],
			"min":[
				-1,
				-1,
				-1
			],
			"type":"VEC3"
		},
		{
			"bufferView":22,
			"componentType":5126,
			"count":192,
			"type":"VEC3"
		},
		{
			"bufferView":23,
			"componentType":5126,
			"count":192,
			"type":"VEC2"
		},
		{
			"bufferView":24,
			"componentType":5123,
			"count":372,
			"type":"SCALAR"
		},
		{
			"bufferView":25,
			"componentType":5126,
			"count":1984,
			"max":[
				0.9999997019767761,
				1,
				0.9999993443489075
			],
			"min":[
				-0.9999990463256836,
				-1,
				-1
			],
			"type":"VEC3"
		},
		{
			"bufferView":26,
			"componentType":5126,
			"count":1984,
			"type":"VEC3"
		},
		{
			"bufferView":27,
			"componentType":5126,
			"count":1984,
			"type":"VEC2"
		},
		{
			"bufferView":28,
			"componentType":5123,
			"count":2880,
			"type":"SCALAR"
		},
		{
			"bufferView":29,
			"componentType":5126,
			"count":1984,
			"max":[
				0.9999997019767761,
				1,
				0.9999993443489075
			],
			"min":[
				-0.9999990463256836,
				-1,
				-1
			],
			"type":"VEC3"
		},
		{
			"bufferView":30,
			"componentType":5126,
			"count":1984,
			"type":"VEC3"
		},
		{
			"bufferView":31,
			"componentType":5126,
			"count":1984,
			"type":"VEC2"
		}
	],
	"bufferViews":[
		{
			"buffer":0,
			"byteLength":14628,
			"byteOffset":0,
			"target":34962
		},
		{
			"buffer":0,
			"byteLength":14628,
			"byteOffset":14628,
			"target":34962
		},
		{
			"buffer":0,
			"byteLength":9752,
			"byteOffset":29256,
			"target":34962
		},
		{
			"buffer":0,
			"byteLength":4032,
			"byteOffset":39008,
			"target":34963
		},
		{
			"buffer":0,
			"byteLength":14628,
			"byteOffset":43040,
			"target":34962
		},
		{
			"buffer":0,
			"byteLength":14628,
			"byteOffset":57668,
			"target":34962
		},
		{
			"buffer":0,
			"byteLength":9752,
			"byteOffset":72296,
			"target":34962
		},
		{
			"buffer":0,
			"byteLength":23808,
			"byteOffset":82048,
			"target":34962
		},
		{
			"buffer":0,
			"byteLength":23808,
			"byteOffset":105856,
			"target":34962
		},
		{
			"buffer":0,
			"byteLength":15872,
			"byteOffset":129664,
			"target":34962
		},
		{
			"buffer":0,
			"byteLength":5760,
			"byteOffset":145536,
			"target":34963
		},
		{
			"buffer":0,
			"byteLength":23808,
			"byteOffset":151296,
			"target":34962
		},
		{
			"buffer":0,
			"byteLength":23808,
			"byteOffset":175104,
			"target":34962
		},
		{
			"buffer":0,
			"byteLength":15872,
			"byteOffset":198912,
			"target":34962
		},
		{
			"buffer":0,
			"byteLength":23808,
			"byteOffset":214784,
			"target":34962
		},
		{
			"buffer":0,
			"byteLength":23808,
			"byteOffset":238592,
			"target":34962
		},
		{
			"buffer":0,
			"byteLength":15872,
			"byteOffset":262400,
			"target":34962
		},
		{
			"buffer":0,
			"byteLength":1824,
			"byteOffset":278272,
			"target":34962
		},
		{
			"buffer":0,
			"byteLength":1824,
			"byteOffset":280096,
			"target":34962
		},
		{
			"buffer":0,
			"byteLength":1216,
			"byteOffset":281920,
			"target":34962
		},
		{
			"buffer":0,
			"byteLength":456,
			"byteOffset":283136,
			"target":34963
		},
		{
			"buffer":0,
			"byteLength":2304,
			"byteOffset":283592,
			"target":34962
		},
		{
			"buffer":0,
			"byteLength":2304,
			"byteOffset":285896,
			"target":34962
		},
		{
			"buffer":0,
			"byteLength":1536,
			"byteOffset":288200,
			"target":34962
		},
		{
			"buffer":0,
			"byteLength":744,
			"byteOffset":289736,
			"target":34963
		},
		{
			"buffer":0,
			"byteLength":23808,
			"byteOffset":290480,
			"target":34962
		},
		{
			"buffer":0,
			"byteLength":23808,
			"byteOffset":314288,
			"target":34962
		},
		{
			"buffer":0,
			"byteLength":15872,
			"byteOffset":338096,
			"target":34962
		},
		{
			"buffer":0,
			"byteLength":5760,
			"byteOffset":353968,
			"target":34963
		},
		{
			"buffer":0,
			"byteLength":23808,
			"byteOffset":359728,
			"target":34962
		},
		{
			"buffer":0,
			"byteLength":23808,
			"byteOffset":383536,
			"target":34962
		},
		{
			"buffer":0,
			"byteLength":15872,
			"byteOffset":407344,
			"target":34962
		}
	],
	"buffers":[
		{
			"byteLength":423216,
			"uri":"data:application/octet-stream;base64,"
		}
	]
}
