{
	"asset":{
		"generator":"Khronos glTF Blender I/O v3.6.28",
		"version":"2.0"
	},
	"scene":0,
	"scenes":[
		{
			"name":"Scene",
			"nodes":[
				0,
				1,
				2,
				3,
				4,
				5
			]
		}
	],
	"nodes":[
		{
			"mesh":0,
			"name":"Torus.001",
			"rotation":[
				0,
				0,
				-0.2588190734386444,
				0.965925931930542
			]
		},
		{
			"mesh":1,
			"name":"Torus.002",
			"rotation":[
				0.5,
				0,
				0,
				0.8660253882408142
			]
		},
		{
			"mesh":2,
			"name":"Torus.003",
			"rotation":[
				0.8660253882408142,
				0,
				0,
				0.4999999701976776
			]
		},
		{
			"mesh":3,
			"name":"Torus.004",
			"rotation":[
				0,
				0,
				0.2588190734386444,
				0.965925931930542
			]
		},
		{
			"mesh":4,
			"name":"Torus.005",
			"rotation":[
				-0.1830126941204071,
				0.1830126941204071,
				-0.6830127239227295,
				0.6830126643180847
			]
		},
		{
			"mesh":5,
			"name":"Torus.006",
			"rotation":[
				0.1830126941204071,
				-0.1830126941204071,
				-0.6830127239227295,
				0.6830126643180847
			]
		}
	],
	"materials":[
		{
			"doubleSided":true,
			"name":"Ring",
			"pbrMetallicRoughness":{
				"baseColorFactor":[
					0.13013604283332825,
					0.491020530462265,
					0.17464756965637207,
					1
				],
				"metallicFactor":0,
				"roughnessFactor":0.5
			}
		},
		{
			"doubleSided":true,
			"name":"Ring.001",
			"pbrMetallicRoughness":{
				"baseColorFactor":[
					0.13013604283332825,
					0.491020530462265,
					0.17464756965637207,
					1
				],
				"metallicFactor":0,
				"roughnessFactor":0.5
			}
		},
		{
			"doubleSided":true,
			"name":"Ring.003",
			"pbrMetallicRoughness":{
				"baseColorFactor":[
					0.13013604283332825,
					0.491020530462265,
					0.17464756965637207,
					1
				],
				"metallicFactor":0,
				"roughnessFactor":0.5
			}
		},
		{
			"doubleSided":true,
			"name":"Ring.004",
			"pbrMetallicRoughness":{
				"baseColorFactor":[
					0.13013604283332825,
					0.491020530462265,
					0.17464756965637207,
					1
				],
				"metallicFactor":0,
				"roughnessFactor":0.5
			}
		}
	],
	"meshes":[
		{
			"name":"Torus.001",
			"primitives":[
				{
					"attributes":{
						"POSITION":0,
						"NORMAL":1,
						"TEXCOORD_0":2
					},
					"indices":3,
					"material":0
				}
			]
		},
		{
			"name":"Torus.011",
			"primitives":[
				{
					"attributes":{
						"POSITION":4,
						"NORMAL":5,
						"TEXCOORD_0":6
					},
					"indices":3,
					"material":0
				}
			]
		},
		{
			"name":"Torus.014",
			"primitives":[
				{
					"attributes":{
						"POSITION":7,
						"NORMAL":8,
						"TEXCOORD_0":9
					},
					"indices":3,
					"material":0
				}
			]
		},
		{
			"name":"Torus.015",
			"primitives":[
				{
					"attributes":{
						"POSITION":10,
						"NORMAL":11,
						"TEXCOORD_0":12
					},
					"indices":3,
					"material":1
				}
			]
		},
		{
			"name":"Torus.017",
			"primitives":[
				{
					"attributes":{
						"POSITION":13,
						"NORMAL":14,
						"TEXCOORD_0":15
					},
					"indices":3,
					"material":2
				}
			]
		},
		{
			"name":"Torus.018",
			"primitives":[
				{
					"attributes":{
						"POSITION":16,
						"NORMAL":17,
						"TEXCOORD_0":18
					},
					"indices":3,
					"material":3
				}
			]
		}
	],
	"accessors":[
		{
			"bufferView":0,
			"componentType":5126,
			"count":2304,
			"max":[
				20,
				1,
				20
			],
			"min":[
				-20,
				-1,
				-20
			],
			"type":"VEC3"
		},
		{
			"bufferView":1,
			"componentType":5126,
			"count":2304,
			"type":"VEC3"
		},
		{
			"bufferView":2,
			"componentType":5126,
			"count":2304,
			"type":"VEC2"
		},
		{
			"bufferView":3,
			"componentType":5123,
			"count":3456,
			"type":"SCALAR"
		},
		{
			"bufferView":4,
			"componentType":5126,
			"count":2304,
			"max":[
				20,
				1,
				20
			],
			"min":[
				-20,
				-1,
				-20
			],
			"type":"VEC3"
		},
		{
			"bufferView":5,
			"componentType":5126,
			"count":2304,
			"type":"VEC3"
		},
		{
			"bufferView":6,
			"componentType":5126,
			"count":2304,
			"type":"VEC2"
		},
		{
			"bufferView":7,
			"componentType":5126,
			"count":2304,
			"max":[
				20,
				1,
				20
			],
			"min":[
				-20,
				-1,
				-20
			],
			"type":"VEC3"
		},
		{
			"bufferView":8,
			"componentType":5126,
			"count":2304,
			"type":"VEC3"
		},
		{
			"bufferView":9,
			"componentType":5126,
			"count":2304,
			"type":"VEC2"
		},
		{
			"bufferView":10,
			"componentType":5126,
			"count":2304,
			"max":[
				20,
				1,
				20
			],
			"min":[
				-20,
				-1,
				-20
			],
			"type":"VEC3"
		},
		{
			"bufferView":11,
			"componentType":5126,
			"count":2304,
			"type":"VEC3"
		},
		{
			"bufferView":12,
			"componentType":5126,
			"count":2304,
			"type":"VEC2"
		},
		{
			"bufferView":13,
			"componentType":5126,
			"count":2304,
			"max":[
				20,
				1,
				20
			],
			"min":[
				-20,
				-1,
				-20
			],
			"type":"VEC3"
		},
		{
			"bufferView":14,
			"componentType":5126,
			"count":2304,
			"type":"VEC3"
		},
		{
			"bufferView":15,
			"componentType":5126,
			"count":2304,
			"type":"VEC2"
		},
		{
			"bufferView":16,
			"componentType":5126,
			"count":2304,
			"max":[
				20,
				1,
				20
			],
			"min":[
				-20,
				-1,
				-20
			],
			"type":"VEC3"
		},
		{
			"bufferView":17,
			"componentType":5126,
			"count":2304,
			"type":"VEC3"
		},
		{
			"bufferView":18,
			"componentType":5126,
			"count":2304,
			"type":"VEC2"
		}
	],
	"bufferViews":[
		{
			"buffer":0,
			"byteLength":27648,
			"byteOffset":0,
			"target":34962
		},
		{
			"buffer":0,
			"byteLength":27648,
			"byteOffset":27648,
			"target":34962
		},
		{
			"buffer":0,
			"byteLength":18432,
			"byteOffset":55296,
			"target":34962
		},
		{
			"buffer":0,
			"byteLength":6912,
			"byteOffset":73728,
			"target":34963
		},
		{
			"buffer":0,
			"byteLength":27648,
			"byteOffset":80640,
			"target":34962
		},
		{
			"buffer":0,
			"byteLength":27648,
			"byteOffset":108288,
			"target":34962
		},
		{
			"buffer":0,
			"byteLength":18432,
			"byteOffset":135936,
			"target":34962
		},
		{
			"buffer":0,
			"byteLength":27648,
			"byteOffset":154368,
			"target":34962
		},
		{
			"buffer":0,
			"byteLength":27648,
			"byteOffset":182016,
			"target":34962
		},
		{
			"buffer":0,
			"byteLength":18432,
			"byteOffset":209664,
			"target":34962
		},
		{
			"buffer":0,
			"byteLength":27648,
			"byteOffset":228096,
			"target":34962
		},
		{
			"buffer":0,
			"byteLength":27648,
			"byteOffset":255744,
			"target":34962
		},
		{
			"buffer":0,
			"byteLength":18432,
			"byteOffset":283392,
			"target":34962
		},
		{
			"buffer":0,
			"byteLength":27648,
			"byteOffset":301824,
			"target":34962
		},
		{
			"buffer":0,
			"byteLength":27648,
			"byteOffset":329472,
			"target":34962
		},
		{
			"buffer":0,
			"byteLength":18432,
			"byteOffset":357120,
			"target":34962
		},
		{
			"buffer":0,
			"byteLength":27648,
			"byteOffset":375552,
			"target":34962
		},
		{
			"buffer":0,
			"byteLength":27648,
			"byteOffset":403200,
			"target":34962
		},
		{
			"buffer":0,
			"byteLength":18432,
			"byteOffset":430848,
			"target":34962
		}
	],
	"buffers":[
		{
			"byteLength":449280,
			"uri":"data:application/octet-stream;base64,"
		}
	]
}
